<svg width="66" height="34" viewBox="0 0 66 34" xmlns="http://www.w3.org/2000/svg">
    <title>alipay</title>
    <g fill-rule="nonzero" fill="none">
        <g fill="#E56606"><path
            d="M30.065 9.803c.01.116.056.238.144.365.19.277.51.772 1.073 1.337s1.104.926 1.347 1.11c.116.09.24.134.362.136 0 0 .184.017.37-.134.237-.193.784-.546 1.346-1.11.563-.566.882-1.062 1.074-1.338.09-.127.136-.25.144-.366h.002V9.8v-.005h-.002c-.01-.116-.056-.24-.144-.365-.192-.277-.51-.772-1.074-1.337-.562-.565-1.1-.93-1.347-1.11-.19-.14-.368-.136-.368-.136-.12.002-.246.047-.362.135-.243.185-.784.546-1.347 1.11-.563.566-.882 1.06-1.074 1.338-.09.127-.136.25-.145.365h-.002V9.8h.002zM55.146 13.95c.006.088.042.18.108.275.144.208.385.58.807 1.006.425.426.832.697 1.015.836.087.067.18.1.272.102 0 0 .138.01.277-.102.18-.145.59-.41 1.014-.835.423-.424.663-.797.808-1.005.066-.095.102-.187.107-.275h.002v-.003-.003h-.002c-.005-.087-.04-.18-.107-.274-.145-.21-.385-.58-.808-1.006-.423-.425-.828-.7-1.014-.836-.143-.105-.277-.1-.277-.1-.09 0-.185.034-.272.1-.183.14-.59.41-1.014.836-.42.425-.662.798-.806 1.006-.066.095-.102.187-.108.274h-.002v.006h.002z"/><path
            d="M64.618 15.46c-12.01 2.458-24.168 2.608-34.03 2.122-6.983-.344-12.553-2.302-16.655-4.158-1.697-.77-3.338-1.225-4.9-1.668-3.96-1.123-8.464.465-8.67 4.267-.28 5.113 6.528 4.907 6.528 4.907-5.22-.314-5.38-3.427-5.344-4.204.028-.59.068-1.506.993-2.408.924-.9 2.538-1.29 3.734-1.29 5.857 0 9.447 5.336 19.79 7.46 13.186 2.705 31.585.558 33.66.37 2.077-.185 2.188-1.004 2.93-1.86.74-.857 2.446-2.198 3.114-3.017.667-.818-.38-.678-1.15-.52z"/></g>
        <g fill="#E56606"><path
            d="M8.94 28.05H5.616l-.583 1.36c-.143.334-.215.584-.215.75 0 .13.06.247.186.346.124.1.393.164.807.194v.235H3.11V30.7c.36-.064.59-.146.697-.248.215-.203.453-.617.715-1.24l3.02-7.094h.22l2.987 7.17c.24.577.458.95.654 1.123.196.173.47.27.82.29v.235H8.838V30.7c.342-.017.573-.074.693-.172.12-.097.18-.216.18-.356 0-.186-.083-.48-.252-.883l-.52-1.24zm-.178-.47l-1.456-3.485-1.493 3.484h2.95zM14.768 21.895v7.725c0 .364.026.606.08.724.05.12.133.21.242.27.11.062.315.093.614.093v.228h-2.84v-.228c.265 0 .446-.028.543-.083.097-.055.173-.146.228-.273.055-.127.082-.37.082-.73v-5.29c0-.657-.015-1.06-.044-1.21-.03-.15-.077-.254-.143-.31-.065-.054-.148-.082-.25-.082-.11 0-.25.034-.417.102l-.108-.223 1.728-.712h.285zM18.375 24.94v4.68c0 .364.026.606.08.727.052.12.13.21.233.27.104.06.292.09.567.09v.228H16.44v-.23c.28 0 .47-.026.568-.08.097-.056.174-.148.23-.275.058-.127.086-.37.086-.73v-2.245c0-.63-.02-1.04-.057-1.227-.03-.135-.075-.23-.14-.283-.062-.053-.15-.08-.258-.08-.12 0-.263.033-.43.096l-.09-.228 1.747-.712h.278zm-.525-3.045c.177 0 .328.063.452.188.125.125.187.276.187.454s-.063.33-.188.458c-.124.127-.275.19-.452.19s-.33-.063-.456-.19c-.127-.127-.19-.28-.19-.458s.062-.33.187-.454c.125-.125.278-.188.46-.188zM19.56 25.69l1.783-.724h.24v1.36c.3-.512.6-.872.902-1.077.302-.207.62-.31.953-.31.582 0 1.067.23 1.456.687.476.56.715 1.29.715 2.187 0 1.004-.288 1.835-.862 2.492-.473.538-1.068.808-1.785.808-.312 0-.582-.045-.81-.134-.17-.063-.36-.19-.57-.38v1.772c0 .4.025.652.073.76.05.108.133.194.253.257s.338.095.654.095v.235h-3.037v-.235h.158c.232.004.43-.04.595-.134.08-.046.142-.12.187-.224.044-.104.066-.368.066-.792V26.83c0-.378-.017-.618-.05-.72-.034-.1-.088-.178-.162-.23-.073-.05-.173-.075-.3-.075-.1 0-.23.03-.386.09l-.075-.204zm2.024 1.01v2.176c0 .47.02.78.057.928.06.245.204.462.434.648.23.187.52.28.87.28.422 0 .764-.165 1.026-.496.34-.432.512-1.04.512-1.824 0-.89-.194-1.575-.582-2.054-.27-.33-.59-.496-.962-.496-.202 0-.403.05-.6.153-.153.076-.404.305-.754.686zM29.74 30.096c-.594.462-.967.73-1.12.8-.227.107-.47.16-.727.16-.4 0-.73-.137-.99-.413-.26-.276-.39-.638-.39-1.087 0-.284.064-.53.19-.738.173-.288.474-.56.902-.813.428-.255 1.14-.564 2.136-.928v-.23c0-.58-.09-.978-.274-1.194-.184-.217-.45-.325-.8-.325-.267 0-.478.073-.634.217-.16.144-.24.31-.24.495l.012.37c0 .194-.05.344-.148.45-.1.106-.23.16-.39.16-.156 0-.283-.056-.382-.166-.1-.11-.15-.26-.15-.45 0-.366.187-.7.558-1.006.37-.305.892-.457 1.563-.457.515 0 .937.087 1.266.26.25.133.433.338.552.618.076.182.113.555.113 1.12v1.976c0 .555.01.895.032 1.02.02.125.056.21.105.25.048.044.104.065.167.065.067 0 .126-.016.176-.046.09-.055.26-.21.513-.464v.356c-.473.636-.925.954-1.355.954-.207 0-.37-.072-.494-.216-.12-.144-.185-.39-.19-.738zm0-.413v-2.22c-.636.256-1.047.436-1.233.542-.333.186-.572.38-.715.585-.143.203-.215.425-.215.667 0 .305.09.56.272.76.18.2.39.302.626.302.32 0 .742-.213 1.265-.637zM31.88 25.112h2.703v.235h-.133c-.19 0-.332.042-.427.124-.095.084-.143.187-.143.31 0 .165.07.394.21.686l1.41 2.937 1.298-3.217c.072-.173.107-.345.107-.514 0-.077-.014-.134-.044-.172-.033-.047-.085-.084-.157-.11-.072-.03-.2-.043-.38-.043v-.235h1.886v.235c-.157.017-.277.05-.362.102-.084.05-.177.145-.278.285-.038.06-.11.223-.215.49l-2.36 5.81c-.23.564-.527.99-.896 1.278-.37.288-.726.432-1.068.432-.25 0-.453-.072-.614-.216-.16-.145-.24-.31-.24-.497 0-.178.058-.32.174-.43.116-.107.275-.16.478-.16.14 0 .33.046.57.14.168.063.274.094.316.094.126 0 .264-.065.414-.197.15-.13.3-.385.453-.763l.41-1.01-2.08-4.393c-.064-.13-.166-.295-.305-.49-.105-.148-.192-.248-.26-.3-.096-.066-.252-.126-.468-.177v-.235zM39.063 29.702c.2 0 .365.07.5.207.136.136.203.303.203.498 0 .194-.07.36-.206.5-.137.136-.302.205-.496.205s-.36-.07-.497-.206c-.137-.138-.206-.305-.206-.5 0-.2.07-.366.207-.502.137-.135.302-.203.496-.203zM46.012 28.723c-.156.767-.462 1.357-.917 1.77-.456.414-.96.62-1.513.62-.658 0-1.232-.277-1.72-.832-.49-.555-.735-1.305-.735-2.25 0-.915.27-1.66.813-2.23.542-.574 1.193-.86 1.952-.86.57 0 1.038.152 1.405.455.367.303.55.618.55.944 0 .16-.05.29-.154.39-.104.1-.248.15-.434.15-.25 0-.438-.08-.564-.242-.072-.09-.12-.26-.142-.51-.024-.25-.11-.44-.257-.57-.147-.128-.352-.192-.614-.192-.422 0-.76.157-1.018.47-.342.416-.513.965-.513 1.647 0 .695.17 1.31.51 1.84.34.532.798.798 1.376.798.413 0 .785-.14 1.114-.425.232-.195.457-.548.677-1.06l.182.088zM49.676 24.94c.878 0 1.583.335 2.114 1.005.452.572.677 1.23.677 1.97 0 .522-.124 1.05-.373 1.583-.25.535-.592.937-1.028 1.208-.437.272-.923.407-1.46.407-.873 0-1.566-.35-2.08-1.05-.436-.588-.653-1.25-.653-1.982 0-.533.132-1.064.395-1.592.264-.527.61-.917 1.04-1.17.432-.25.887-.377 1.368-.377zm-.196.414c-.224 0-.448.066-.674.2-.226.133-.408.368-.547.702-.14.335-.21.765-.21 1.29 0 .85.168 1.58.503 2.194.336.615.777.922 1.326.922.408 0 .746-.17 1.012-.51.265-.338.398-.92.398-1.747 0-1.034-.22-1.848-.664-2.44-.3-.408-.682-.61-1.146-.61zM55.043 26.18c.422-.424.67-.667.747-.73.19-.162.394-.287.614-.376.22-.09.437-.134.652-.134.363 0 .675.106.936.318.262.212.437.52.526.922.434-.51.8-.842 1.1-1 .3-.16.608-.24.925-.24.308 0 .58.08.82.24.238.158.426.417.566.777.09.246.138.632.138 1.157v2.505c0 .364.027.614.082.75.042.093.12.172.234.238.114.066.3.098.557.098v.23h-2.86v-.23h.12c.25 0 .444-.048.583-.146.097-.068.167-.176.21-.324.016-.072.025-.278.025-.617v-2.506c0-.474-.057-.81-.17-1.004-.166-.27-.43-.407-.792-.407-.224 0-.45.056-.674.168-.226.114-.5.322-.82.628l-.013.07.012.273v2.78c0 .397.022.645.066.743.045.097.128.18.25.244.123.066.33.1.627.1v.228h-2.93v-.23c.32 0 .54-.037.66-.114.12-.075.204-.19.25-.342.022-.072.033-.282.033-.63v-2.504c0-.475-.07-.816-.21-1.023-.185-.27-.444-.406-.778-.406-.228 0-.453.06-.677.184-.35.187-.62.396-.81.63v3.12c0 .382.026.63.08.745.052.114.13.2.233.257.103.057.313.086.63.086v.23H53.12v-.23c.265 0 .45-.03.556-.086.106-.057.186-.148.24-.273.055-.125.083-.368.083-.728v-2.226c0-.64-.02-1.054-.058-1.24-.03-.14-.076-.236-.14-.29-.063-.052-.15-.078-.26-.078-.117 0-.258.03-.423.095l-.096-.228 1.747-.712h.273v1.24z"/></g>
        <g fill="#004289"><path
            d="M15.536.862h-.68c-1.72-.012-2.457.02-2.768.517v2.275H5.193V4.81h6.895v2.755H7.12V8.72h10.455c-.09 1.27-1.134 3.24-2.64 5.144.88.378 1.82.753 2.82 1.114 2.166-2.836 3.328-5.927 3.416-7.413h-5.634V4.81h7.08V3.654h-7.08V.862zM30.165.862C28.447.85 27.71.882 27.4 1.38v.073c0 .253-.15 1.655-1.978 3.505-1.68 1.7-2.744 2.346-2.744 2.346s.1.226.21.398c.113.172.272.31.272.31s1.09-.358 2.435-1.07v10.222c1.11.19 2.258.348 3.447.455V4.375C29.92 3.4 30.548 2.23 30.587.862h-.422zM58.984 2.314c-.622 0-3.02.08-5.598.17V.862h-.682c-1.717-.012-2.456.02-2.766.517v1.229l-3.583.134V2.08h-.558c-1.718-.013-2.456.017-2.767.515V7.09h6.908v3.094H45.18v1.155h4.758v6.25c1.163-.084 2.312-.184 3.448-.298V11.34h5.067v-1.156h-5.067V7.09h5.98v-.582c.29-.01.723-.1.853-.817.147-.818.197-1.34.222-1.712.024-.373.024-1.664-1.458-1.664zM57.45 4.276c-.036.372-.17 1.245-.235 1.66h-10.86V3.948c1.132-.042 9.802-.367 10.38-.367.617 0 .766.2.716.696z"/><path
            d="M39.67.862h-.682c-1.718-.012-2.456.02-2.766.517V4.87H29.66v1.156h6.562v11.907c1.066.02 2.126.035 3.17.035h.277V6.025h1.927V4.87H39.67V.863zM6.713 19.407c-2.04 0-4.152-1.005-4.152-3.463 0-1.8 1.787-2.56 2.745-2.84-1 .154-2.075.54-2.766 1.214-.925.902-.966 1.817-.994 2.408-.035.778.123 3.89 5.345 4.204l-.053.002c.087.003.136.002.136.002 3.79 0 6.853-1.785 9.153-4.09-.913-.48-1.762-.952-2.575-1.393-2.093 2.185-4.66 3.957-6.837 3.957zM61.58.992h.507v1.36h.203V.99h.508V.82h-1.22M64.212.82l-.483 1.287L63.25.82h-.278v1.53h.19V1.078h.006l.476 1.274h.173l.476-1.273h.004V2.35h.192V.82"/></g>
    </g>
</svg>
