<svg width="68" height="30" viewBox="0 0 68 30" xmlns="http://www.w3.org/2000/svg">
    <title>boleto</title>
    <g fill="none" fill-rule="evenodd"><path
        fill="#1A1918"
        d="M5.135 29.793h3.19V.395h-3.19M9.33 29.793h.99V.395h-.99M11.18 29.793h1.77V.395h-1.77M14.657 29.793h.99V.395h-.99M16.076 29.793h.762V.395h-.762M2.71 29.793h.988V.395h-.99M.53 29.793H2.3V.395H.53M22.12 29.793h3.19V.395h-3.19M26.317 29.793h.99V.395h-.99M28.167 29.793h1.77V.395h-1.77M31.643 29.793h.99V.395h-.99M33.06 29.793h.764V.395h-.763M19.695 29.793h.99V.395h-.99M17.515 29.793h1.77V.395h-1.77M35.077 29.793h1.77V.395h-1.77M38.552 29.793h.99V.395h-.99M39.972 29.793h.762V.395h-.762M43.59 29.793h.99V.395h-.99M41.41 29.793h1.77V.395h-1.77M45.894 29.793h.99V.395h-.99M47.313 29.793h.762V.395h-.762M50.933 29.793h.99V.395h-.99M48.752 29.793h1.77V.395h-1.77M52.783 29.793h3.19V.395h-3.19M56.98 29.793h.988V.395h-.99M58.83 29.793h1.77V.395h-1.77M62.305 29.793h.99V.395h-.99M63.724 29.793h.762V.395h-.762M65.74 29.793h1.77V.395h-1.77"/><path fill="#FFF" d="M4.137 29.86h61.15V13.383H4.138"/><path
        d="M5.29 29.228V14.32h5.684c1.157 0 2.084.15 2.785.452.698.3 1.245.766 1.64 1.395.398.624.595 1.28.595 1.967 0 .635-.176 1.236-.525 1.798-.35.562-.878 1.017-1.587 1.363.917.264 1.622.715 2.112 1.354.494.633.74 1.387.74 2.255 0 .7-.15 1.35-.45 1.95-.3.6-.67 1.06-1.112 1.388-.44.322-.994.57-1.657.735-.666.167-1.48.25-2.447.25H5.29zm2.01-8.64h3.276c.888 0 1.526-.06 1.91-.174.512-.15.897-.4 1.154-.746.257-.347.388-.78.388-1.305 0-.496-.12-.934-.364-1.308-.24-.378-.585-.64-1.032-.778-.448-.138-1.217-.208-2.303-.208H7.3v4.517zm0 6.89h3.773c.65 0 1.104-.023 1.368-.072.46-.08.848-.215 1.158-.406.31-.19.564-.468.765-.832.2-.365.3-.785.3-1.26 0-.56-.145-1.04-.438-1.454-.29-.413-.69-.7-1.206-.868-.512-.166-1.252-.25-2.215-.25H7.3v5.143zM18.555 23.825c0-1.995.564-3.473 1.696-4.435.943-.798 2.096-1.197 3.453-1.197 1.506 0 2.74.486 3.7 1.458.954.97 1.434 2.312 1.434 4.022 0 1.388-.212 2.478-.635 3.273-.423.795-1.04 1.412-1.85 1.853-.81.44-1.693.66-2.65.66-1.536 0-2.777-.483-3.726-1.45-.948-.97-1.42-2.364-1.42-4.183zm1.904.004c0 1.38.306 2.414.92 3.097.616.687 1.39 1.03 2.323 1.03.924 0 1.693-.343 2.31-1.033.613-.69.92-1.742.92-3.154 0-1.333-.31-2.343-.928-3.026-.616-.687-1.385-1.03-2.302-1.03-.934 0-1.707.34-2.323 1.022-.614.684-.92 1.715-.92 3.093zM30.977 29.228h1.862V14.32h-1.863M43.21 25.73l1.924.25c-.3 1.1-.86 1.957-1.678 2.564-.818.608-1.862.913-3.135.913-1.6 0-2.87-.486-3.807-1.457-.938-.968-1.407-2.332-1.407-4.085 0-1.81.473-3.22 1.42-4.22.95-1.002 2.18-1.502 3.692-1.502 1.464 0 2.66.49 3.587 1.47.927.983 1.392 2.364 1.392 4.145 0 .107-.003.27-.01.486H37.01c.07 1.183.41 2.092 1.023 2.72.61.628 1.375.944 2.288.944.682 0 1.263-.177 1.743-.53.483-.355.864-.92 1.146-1.698zm-6.094-2.936h6.114c-.08-.908-.317-1.59-.702-2.043-.588-.704-1.358-1.058-2.3-1.058-.852 0-1.568.28-2.15.844-.578.56-.898 1.314-.962 2.258zM51.526 27.594l.254 1.617c-.52.11-.99.164-1.4.164-.673 0-1.195-.104-1.568-.316-.37-.212-.632-.486-.783-.83-.153-.343-.227-1.065-.227-2.165v-6.225h-1.375v-1.416h1.375V15.75l1.862-1.1v3.772h1.86v1.416h-1.86v6.33c0 .523.03.86.1 1.01.062.15.168.266.316.357.15.086.36.13.636.13.204 0 .476-.023.81-.07M52.665 23.825c0-1.995.565-3.473 1.696-4.435.943-.798 2.096-1.197 3.453-1.197 1.506 0 2.74.486 3.7 1.458.955.97 1.434 2.312 1.434 4.022 0 1.388-.21 2.478-.634 3.273-.424.795-1.04 1.412-1.852 1.853-.806.44-1.69.66-2.647.66-1.537 0-2.778-.483-3.727-1.45-.948-.97-1.42-2.364-1.42-4.183zm1.904.004c0 1.38.307 2.414.92 3.097.617.687 1.39 1.03 2.323 1.03.924 0 1.693-.343 2.31-1.033.613-.69.92-1.742.92-3.154 0-1.333-.31-2.343-.927-3.026-.617-.687-1.386-1.03-2.303-1.03-.934 0-1.706.34-2.323 1.022-.613.684-.92 1.715-.92 3.093z"
        fill="#1A1918"/></g>
</svg>
