<svg width="58" height="34" viewBox="0 0 58 34" xmlns="http://www.w3.org/2000/svg">
    <title>mastercard</title>
    <g fill="none" fill-rule="evenodd"><path d="M29.05 29.523c2.99 2.735 7.002 4.393 11.367 4.393 9.374 0 16.96-7.593 16.96-16.933C57.378 7.615 49.792.02 40.418.02c-4.365 0-8.378 1.66-11.366 4.395-3.426 3.112-5.594 7.593-5.594 12.568s2.168 9.456 5.595 12.54z" fill="#FAB31E"/><path
        d="M34.53 15.18c-.06-.612-.176-1.193-.294-1.804h-10.37c.118-.61.293-1.193.47-1.775h9.402c-.205-.61-.44-1.22-.703-1.803h-7.968c.293-.61.615-1.222.967-1.804h6.005c-.382-.61-.82-1.222-1.29-1.774h-3.427c.527-.64 1.113-1.252 1.728-1.805-3.016-2.706-7-4.393-11.394-4.393C8.31.022.696 7.615.696 16.982c0 9.34 7.615 16.934 16.96 16.934 4.394 0 8.378-1.658 11.395-4.393.616-.553 1.173-1.135 1.7-1.775h-3.427c-.47-.582-.88-1.163-1.29-1.803h6.006c.38-.582.702-1.164.995-1.804h-7.968c-.264-.58-.527-1.163-.732-1.774h9.403c.205-.582.35-1.193.498-1.804.118-.582.234-1.193.293-1.804.058-.582.087-1.164.087-1.775 0-.61-.03-1.222-.088-1.804z"
        fill="#E40520"/><path
        d="M55.122 20.91c0-.32.234-.55.528-.55.322 0 .556.23.556.55 0 .292-.234.554-.556.554-.293 0-.528-.262-.528-.553zm.528.408c.234 0 .44-.174.44-.407 0-.232-.206-.406-.44-.406-.205 0-.41.174-.41.407 0 .234.205.408.41.408zm-.06-.174h-.116v-.466h.321c.06.03.06.088.06.146 0 .03-.03.087-.09.116l.118.204h-.146l-.06-.175h-.087v.174-.262h.06c.03 0 .06 0 .06-.03.028 0 .028-.028.028-.057 0 0 0-.03-.03-.03 0-.03-.03 0-.058 0h-.06v.379z"
        fill="#FFF"/><path
        d="M23.28 21.87c-.556.146-.966.234-1.376.234-.88 0-1.407-.553-1.407-1.542 0-.204.03-.408.06-.64l.116-.67.088-.552.792-4.772h1.758l-.206 1.048h1.114l-.264 1.745H22.84l-.468 2.852c-.03.146-.03.233-.03.29 0 .38.176.525.616.525.205 0 .38-.03.556-.058l-.234 1.54zM28.963 21.813c-.644.175-1.23.262-1.875.262-1.99 0-3.134-1.048-3.134-3.114 0-2.413 1.348-4.16 3.222-4.16 1.495 0 2.46.99 2.46 2.532 0 .524-.057 1.02-.204 1.717H25.77c-.03.115-.03.174-.03.232 0 .814.557 1.22 1.612 1.22.674 0 1.26-.143 1.904-.435l-.293 1.746zm-1.084-4.16v-.35c0-.58-.322-.902-.88-.902-.585 0-.995.438-1.17 1.253h2.05zM9.22 21.958H7.402l1.055-6.604-2.373 6.604h-1.26l-.146-6.575-1.114 6.575H1.78l1.434-8.582H5.88l.06 5.294 1.785-5.294h2.93M13.643 18.845c-.176-.03-.234-.03-.352-.03-1.053 0-1.58.408-1.58 1.048 0 .437.263.728.673.728.88 0 1.23-.726 1.26-1.745zm1.464 3.113h-1.58l.028-.727c-.41.554-.967.845-1.933.845-.88 0-1.64-.785-1.64-1.92 0-.32.058-.61.145-.903.293-1.076 1.377-1.745 3.047-1.774.205 0 .527 0 .82.03.06-.234.06-.32.06-.467 0-.464-.382-.61-1.232-.61-.527 0-1.113.088-1.523.233l-.264.06-.117.027.262-1.57c.85-.262 1.465-.38 2.14-.38 1.58 0 2.43.73 2.43 2.067 0 .35.03.61-.088 1.367l-.41 2.502-.06.437-.028.35-.03.232-.03.203zM37.81 15.034c.527 0 .996.145 1.64.466l.323-1.863c-.176-.087-.235-.087-.47-.174l-.732-.204c-.233-.06-.526-.088-.848-.088-.908 0-1.435.03-1.992.35-.293.203-.674.465-1.084.93l-.234-.058-1.875 1.31.088-.728h-1.933l-1.143 6.982h1.845l.673-3.753s.264-.524.38-.698c.352-.436.645-.436 1.027-.436h.146c-.058.408-.087.844-.087 1.34 0 2.268 1.29 3.694 3.28 3.694.5 0 .938-.058 1.612-.233l.322-1.977c-.586.32-1.113.466-1.552.466-1.084 0-1.73-.816-1.73-2.097.002-1.89.968-3.23 2.345-3.23zM53.365 13.376l-.41 2.443c-.44-.67-.967-.99-1.67-.99-.967 0-1.875.553-2.43 1.6v-.03l-1.173-.697.117-.727h-1.963l-1.114 6.982h1.817l.615-3.753s.468-.524.586-.698c.294-.35.586-.408.82-.436-.204.582-.32 1.28-.32 2.066 0 1.746.907 2.91 2.254 2.91.674 0 1.2-.233 1.7-.786l-.088.698h1.728l1.406-8.583h-1.875zM51.11 20.3c-.616 0-.938-.465-.938-1.367 0-1.368.586-2.357 1.435-2.357.645 0 .967.495.967 1.368 0 1.396-.586 2.356-1.464 2.356zM42.643 18.845c-.175-.03-.234-.03-.35-.03-1.056 0-1.583.408-1.583 1.048 0 .437.264.728.674.728.88 0 1.23-.726 1.26-1.745zm1.465 3.113h-1.61l.058-.727c-.41.554-.967.845-1.934.845-.908 0-1.7-.757-1.7-1.92 0-1.66 1.26-2.677 3.253-2.677.205 0 .527 0 .79.03.06-.234.09-.32.09-.467 0-.464-.382-.61-1.26-.61-.5 0-1.114.088-1.524.233l-.233.06-.118.027.263-1.57c.85-.262 1.465-.38 2.138-.38 1.583 0 2.403.73 2.403 2.067 0 .35.06.61-.088 1.367l-.38 2.502-.06.437-.058.35-.03.232v.203zM18.945 16.46c.35 0 .85.03 1.377.116l.263-1.63c-.527-.057-1.23-.145-1.64-.145-2.05 0-2.724 1.107-2.724 2.387 0 .844.382 1.455 1.377 1.92.733.35.85.407.85.728 0 .436-.38.698-1.084.698-.556 0-1.084-.088-1.67-.29l-.205 1.6.03.028.35.06c.118.028.265.058.47.086.44.03.82.06 1.054.06 2.05 0 2.9-.787 2.9-2.33 0-.96-.468-1.54-1.376-1.95-.79-.348-.88-.406-.88-.725 0-.32.352-.61.91-.61z"
        fill="#06326E"/><path
        d="M40.27 13.085l-.32 1.862c-.646-.32-1.115-.466-1.642-.466-1.377 0-2.344 1.34-2.344 3.23 0 1.31.645 2.095 1.73 2.095.438 0 .965-.145 1.55-.436l-.32 1.948c-.675.175-1.114.262-1.612.262-1.992 0-3.222-1.425-3.222-3.724 0-3.055 1.7-5.208 4.13-5.208.322 0 .615.03.85.088l.732.174c.235.087.293.117.47.175zM34.354 14.365h-.176c-.616 0-.967.29-1.524 1.135l.176-1.077h-1.67l-1.142 6.983h1.845c.674-4.277.85-5.005 1.73-5.005h.116c.175-.842.41-1.453.702-2.006l-.058-.03zM23.75 21.318c-.5.175-.91.233-1.32.233-.936 0-1.464-.523-1.464-1.54 0-.175.03-.41.06-.612l.116-.698.088-.553.79-4.772h1.817l-.205 1.048h.937l-.235 1.717h-.937l-.498 2.91c-.03.115-.03.202-.03.29 0 .35.176.495.616.495.204 0 .38 0 .498-.058l-.235 1.54zM16.69 16.634c0 .873.41 1.484 1.376 1.95.762.35.88.465.88.756 0 .437-.323.64-1.055.64-.556 0-1.054-.087-1.64-.262l-.264 1.6.088.03.323.058c.117.03.263.058.498.058.41.058.76.058.996.058 1.934 0 2.842-.727 2.842-2.327 0-.96-.38-1.514-1.29-1.95-.79-.35-.878-.437-.878-.756 0-.38.322-.554.908-.554.352 0 .85.03 1.318.087l.264-1.6c-.47-.087-1.2-.146-1.61-.146-2.052 0-2.784 1.077-2.755 2.357zM54.302 21.406h-1.728l.088-.67c-.498.524-1.025.757-1.7.757-1.347 0-2.226-1.134-2.226-2.88 0-2.328 1.377-4.306 2.99-4.306.73 0 1.258.32 1.756.96l.41-2.444h1.817L54.3 21.406zm-2.695-1.63c.85 0 1.436-.99 1.436-2.356 0-.902-.323-1.368-.967-1.368-.82 0-1.436.96-1.436 2.328 0 .93.323 1.397.967 1.397zM29.374 21.26c-.645.204-1.23.29-1.905.29-2.05 0-3.106-1.075-3.106-3.14 0-2.387 1.348-4.162 3.194-4.162 1.523 0 2.49.99 2.49 2.532 0 .523-.06 1.018-.235 1.745H26.18c-.03.087-.03.145-.03.204 0 .814.558 1.22 1.612 1.22.674 0 1.26-.115 1.905-.436l-.293 1.746zm-1.026-4.16v-.35c0-.582-.322-.9-.88-.9-.585 0-.995.435-1.17 1.25h2.05zM9.688 21.406H7.872L8.927 14.8l-2.373 6.606h-1.26l-.146-6.547-1.114 6.546H2.336l1.435-8.583h2.637l.088 5.324 1.758-5.324h2.87M14.23 18.293c-.177 0-.265-.03-.41-.03-1.027 0-1.554.38-1.554 1.077 0 .437.234.698.644.698.762 0 1.29-.698 1.32-1.745zm1.346 3.113h-1.523l.03-.728c-.47.582-1.085.844-1.934.844-.997 0-1.67-.756-1.67-1.89 0-1.718 1.17-2.707 3.22-2.707.206 0 .47.03.763.058.06-.233.06-.32.06-.436 0-.466-.323-.64-1.173-.64-.527 0-1.113.058-1.523.174l-.264.088-.176.03.264-1.57c.91-.263 1.524-.35 2.198-.35 1.582 0 2.43.698 2.43 2.036 0 .35-.028.61-.145 1.396l-.41 2.474-.06.436-.028.35-.03.26-.03.176zM43.23 18.293c-.206 0-.294-.03-.41-.03-1.055 0-1.582.38-1.582 1.077 0 .437.263.698.673.698.733 0 1.29-.698 1.32-1.745zm1.347 3.113h-1.524l.03-.728c-.47.582-1.084.844-1.933.844-.996 0-1.67-.756-1.67-1.89 0-1.718 1.172-2.707 3.222-2.707.205 0 .47.03.733.058.058-.233.087-.32.087-.436 0-.466-.322-.64-1.17-.64-.53 0-1.144.058-1.554.174l-.234.088-.176.03.264-1.57c.908-.263 1.523-.35 2.196-.35 1.582 0 2.403.698 2.403 2.036 0 .35 0 .61-.146 1.396l-.38 2.474-.06.436-.058.35-.03.26v.176zM49.498 14.365h-.176c-.615 0-.966.29-1.523 1.135l.175-1.077h-1.67l-1.113 6.983h1.816c.674-4.277.85-5.005 1.73-5.005h.116c.175-.842.41-1.453.703-2.006l-.06-.03z"
        fill="#FFF"/></g>
</svg>
