<svg width="54" height="35" viewBox="0 0 54 35" xmlns="http://www.w3.org/2000/svg">
    <title>union_pay</title>
    <g fill="none" fill-rule="evenodd"><path d="M23.453.26H11.26l12.12.005c.025-.002.05-.004.073-.004zM.348 31.84v2.275h2.58c-1.45-.022-2.458-.972-2.58-2.276z"/><path d="M38.122.268l-5.28-.002 5.25.004.03-.002z" fill="#DB383C" fill-rule="nonzero"/><path
        d="M12.613 30.842L18.86 3.536C19.272 1.75 21.56.3 23.38.266L11.26.26c-1.83 0-4.175 1.466-4.593 3.276L.42 30.842c-.04.167-.06.33-.072.49v.507c.122 1.303 1.13 2.253 2.58 2.275H15.12c-1.8-.027-2.92-1.483-2.507-3.273z"
        fill="#E20613"
        fill-rule="nonzero"/><path d="M32.84.266L23.454.26c-.024 0-.048.003-.073.005h9.46z" fill="#2C4F7A" fill-rule="nonzero"/><path d="M27.36 30.842l6.247-27.306c.41-1.773 2.67-3.21 4.485-3.266l-5.25-.003L23.38.265c-1.82.036-4.108 1.484-4.52 3.27l-6.247 27.307c-.413 1.79.708 3.246 2.508 3.273h14.75c-1.8-.027-2.92-1.483-2.51-3.273z" fill="#0069B3" fill-rule="nonzero"/><path d="M51.333.27L38.126.27h-.004l-.03.002c-1.814.055-4.074 1.493-4.485 3.266L27.36 30.842c-.41 1.79.71 3.246 2.51 3.273H43.744c1.774-.087 3.498-1.508 3.902-3.26l6.247-27.308C54.31 1.74 53.163.27 51.333.27z" fill="#00919D" fill-rule="nonzero"/><path
        d="M23.636 20.162h.23c.21 0 .35-.07.418-.208l.596-.882h1.596l-.333.58h1.914l-.243.888h-2.277c-.262.39-.585.573-.973.552h-1.186l.258-.93zm-.263 1.273h4.193l-.267.965h-1.687l-.257.93h1.64l-.267.966h-1.642l-.38 1.376c-.095.23.03.334.37.31h1.337l-.248.897H23.6c-.487 0-.654-.276-.5-.828l.486-1.756h-1.05l.268-.965h1.048l.258-.93h-1.003l.266-.965zm6.692-2.37l-.065.566s.79-.586 1.51-.586h2.653l-1.015 3.63c-.084.416-.445.622-1.083.622h-3.008l-.705 2.55c-.04.136.017.206.17.206h.59l-.217.79H27.39c-.577 0-.818-.17-.722-.515l1.99-7.26h1.407zm2.248 1.027h-2.37l-.282.98s.395-.282 1.054-.292c.658-.01 1.41 0 1.41 0l.19-.688zm-.858 2.273c.175.023.273-.045.285-.207l.145-.516h-2.373l-.2.723h2.143zm-1.6 1.173h1.367l-.025.584h.364c.185 0 .276-.058.276-.173l.108-.38h1.136l-.15.552c-.13.46-.47.7-1.023.724h-.73l-.002 1c-.014.16.133.24.435.24h.685l-.22.792H30.43c-.46.022-.685-.195-.68-.655l.104-2.685zM35.667 20.202l.317-1.103h1.604l-.07.404s.82-.405 1.41-.405h1.983l-.314 1.102h-.312l-1.496 5.202h.312l-.297 1.033h-.312l-.13.448H36.81l.13-.448h-3.064l.3-1.033h.306l1.497-5.202h-.31zm1.73 0l-.408 1.408s.697-.265 1.3-.34c.133-.492.306-1.068.306-1.068h-1.2zM36.8 22.27l-.41 1.474s.774-.376 1.306-.408c.153-.57.307-1.066.307-1.066H36.8zm.3 3.134l.307-1.07H36.21l-.308 1.07H37.1zm3.88-6.373h1.507l.063.55c-.01.14.075.207.254.207h.266l-.27.93h-1.108c-.423.023-.64-.137-.66-.482l-.053-1.204zm-.443 2h4.884l-.286.998H43.58l-.267.93h1.553l-.29.998h-1.73l-.39.585h.847l.195 1.172c.024.117.128.173.307.173h.263l-.277.965h-.93c-.48.023-.73-.137-.75-.48l-.226-1.07-.77 1.137c-.182.32-.462.47-.84.448h-1.42l.275-.965h.443c.182 0 .334-.08.47-.24l1.206-1.724h-1.556l.288-.998h1.687l.267-.93H40.25l.287-1zM13.282 14.23c-.185.897-.616 1.587-1.282 2.077-.66.48-1.514.723-2.558.723-.982 0-1.702-.247-2.162-.742-.318-.35-.477-.798-.477-1.338 0-.223.027-.463.08-.72l1.113-5.3h1.68L8.58 14.17c-.035.144-.048.28-.047.4 0 .27.066.49.203.66.2.255.52.382.97.382.518 0 .944-.125 1.274-.377.33-.25.546-.604.643-1.066l1.1-5.24h1.672l-1.113 5.3M14.83 12.143h1.185l-.135.683.17-.195c.384-.405.852-.607 1.403-.607.5 0 .86.143 1.085.432.223.288.283.686.178 1.197l-.654 3.223h-1.22l.59-2.92c.062-.302.045-.527-.048-.672-.093-.145-.27-.217-.526-.217-.313 0-.577.097-.792.288-.216.194-.358.462-.43.803l-.542 2.718h-1.222l.957-4.732M28.433 12.143h1.187l-.135.683.17-.195c.383-.405.852-.607 1.402-.607.5 0 .86.143 1.084.432.222.288.286.686.178 1.197l-.65 3.223h-1.222l.59-2.92c.06-.302.044-.527-.048-.672-.096-.145-.27-.217-.525-.217-.314 0-.576.097-.794.288-.217.194-.36.462-.427.803l-.547 2.718h-1.22l.957-4.732M20.335 12.144h1.316l-1.03 4.73h-1.312l1.027-4.73zm.415-1.722h1.327l-.248 1.148H20.5l.248-1.148zM22.815 16.513c-.344-.325-.517-.763-.52-1.32 0-.095.007-.203.02-.32.012-.12.028-.238.05-.346.157-.768.49-1.378 1-1.828.512-.452 1.128-.68 1.85-.68.59 0 1.06.164 1.403.49.343.33.515.772.515 1.336 0 .096-.008.208-.02.328-.015.12-.034.238-.055.353-.153.757-.484 1.36-.996 1.8-.51.446-1.126.668-1.843.668-.594 0-1.062-.16-1.405-.482m2.507-.936c.232-.248.398-.625.5-1.126.014-.078.028-.16.036-.24.01-.08.012-.156.012-.224 0-.292-.075-.518-.226-.678-.15-.162-.363-.242-.64-.242-.363 0-.66.127-.893.38-.233.253-.4.636-.504 1.146-.014.078-.026.157-.037.234-.01.078-.012.15-.01.218 0 .29.075.513.226.67.15.16.362.238.64.238.367 0 .664-.125.896-.375M34.3 9.21h3.448c.663 0 1.175.15 1.528.44.35.295.526.718.526 1.27v.016c0 .105-.007.224-.017.352-.017.127-.04.255-.067.388-.152.73-.505 1.316-1.05 1.76-.546.445-1.193.668-1.938.668h-1.85l-.57 2.77h-1.6L34.3 9.21zm.863 3.56h1.533c.4 0 .716-.09.947-.272.23-.184.382-.463.466-.843.012-.07.02-.133.03-.192.006-.055.013-.11.013-.163 0-.272-.098-.468-.294-.592-.196-.125-.503-.184-.928-.184H35.63l-.467 2.247zM46.965 17.79c-.506 1.062-.988 1.682-1.27 1.97-.285.285-.846.95-2.198.898l.116-.81c1.138-.347 1.754-1.91 2.104-2.6l-.418-5.092.88-.012h.738l.08 3.194 1.383-3.194h1.403l-2.818 5.646M43.046 12.53l-.556.378c-.582-.45-1.113-.73-2.138-.26-1.397.64-2.564 5.548 1.28 3.932l.22.256 1.513.04.993-4.46-1.312.113m-.86 2.437c-.242.708-.786 1.176-1.21 1.043-.425-.13-.577-.813-.33-1.523.242-.71.788-1.176 1.21-1.043.424.13.578.813.33 1.523"
        fill="#FFF"
        fill-rule="nonzero"/></g>
</svg>
