<svg width="77" height="25" viewBox="0 0 77 25" xmlns="http://www.w3.org/2000/svg">
    <title>visa</title>
    <g fill-rule="nonzero" fill="none"><path
        fill="#005098"
        d="M27.32 23.774L31.172 1.01h6.168l-3.86 22.764M55.847 1.57c-1.22-.46-3.136-.956-5.527-.956-6.093 0-10.384 3.088-10.422 7.513-.035 3.27 3.063 5.097 5.402 6.185 2.4 1.116 3.21 1.828 3.198 2.824-.017 1.526-1.918 2.222-3.69 2.222-2.468 0-3.78-.343-5.804-1.194l-.793-.36-.865 5.095c1.44.635 4.102 1.185 6.87 1.212 6.48 0 10.686-3.05 10.735-7.778.024-2.588-1.618-4.558-5.175-6.184-2.156-1.054-3.477-1.756-3.464-2.823 0-.946 1.12-1.957 3.534-1.957 2.015-.032 3.477.41 4.612.872l.556.263.835-4.934zM71.658 1.032h-4.765c-1.476 0-2.58.405-3.23 1.888L54.51 23.783h6.475s1.056-2.805 1.298-3.42c.708 0 6.997.01 7.897.01.183.796.75 3.41.75 3.41h5.722l-4.992-22.75zm-7.604 14.674c.51-1.312 2.456-6.365 2.456-6.365-.034.062.508-1.317.818-2.172l.418 1.963 1.428 6.576h-5.12zM22.148 1.027L16.11 16.55l-.645-3.153c-1.12-3.638-4.623-7.58-8.538-9.55l5.52 19.91 6.523-.01 9.708-22.72h-6.53z"/><path d="M10.51 1.013H.566l-.076.473c7.734 1.885 12.854 6.44 14.975 11.91l-2.16-10.462c-.372-1.44-1.455-1.87-2.794-1.92z" fill="#F6A500"/></g>
</svg>
